<svg width="231" height="237" viewBox="0 0 231 237" fill="none" xmlns="http://www.w3.org/2000/svg">
<path d="M205 144.5H204.5V145V163V163.5H205H225H225.5V163V145V144.5H225H205Z" stroke="black"/>
<path d="M78.5 46V45.5H78H63.9703H63.4703V46V84.7779C58.3166 77.0573 49.6345 72.9571 37.5424 72.9571C24.816 72.9571 15.5308 78.4312 9.44386 86.9145C3.37076 95.3787 0.5 106.808 0.5 118.729C0.5 130.649 3.37076 142.078 9.44386 150.543C15.5308 159.026 24.816 164.5 37.5424 164.5C50.2912 164.5 59.3135 159.789 64.3561 151.687L64.7758 162.059L64.7953 162.539H65.2754H78H78.5V162.039V46ZM40.4788 150.098C31.6788 150.098 25.6336 146.264 21.7674 140.454C17.8843 134.619 16.1822 126.759 16.1822 118.729C16.1822 110.368 17.8855 102.345 21.7692 96.4285C25.6353 90.5387 31.6794 86.705 40.4788 86.705C49.1934 86.705 55.2391 90.5768 59.1275 96.4901C63.0324 102.428 64.7754 110.452 64.7754 118.729C64.7754 126.675 63.0336 134.535 59.1292 140.392C55.2408 146.226 49.1941 150.098 40.4788 150.098Z" stroke="black"/>
<path d="M25.5 0.864443L229.997 118.5L25.5 236.136L25.5 0.864443Z" stroke="#393939"/>
<path d="M160.91 103.947L160.983 104.395L161.436 104.365L176.212 103.391L176.741 103.356L176.675 102.83C174.34 84.0105 157.826 72.5 139.896 72.5C127.7 72.5 117.585 76.937 110.524 84.872C103.468 92.8013 99.5 104.179 99.5 118C99.5 131.821 103.468 143.199 110.524 151.128C117.585 159.063 127.7 163.5 139.896 163.5C158.508 163.5 174.665 151.319 177.495 131.555L177.571 131.02L177.033 130.985L162.092 130.01L161.639 129.981L161.566 130.429C159.637 142.36 150.497 149.179 139.896 149.179C132.069 149.179 125.941 146.272 121.757 140.962C117.559 135.637 115.276 127.84 115.276 118C115.276 108.16 117.559 100.363 121.757 95.0378C125.941 89.7284 132.069 86.8213 139.896 86.8213C150.032 86.8213 159.149 93.1778 160.91 103.947Z" stroke="black"/>
</svg>
